<svg width="40" height="40" viewBox="0 0 40 40" fill="none" xmlns="http://www.w3.org/2000/svg">
<path fill-rule="evenodd" clip-rule="evenodd" d="M36.5387 17.6116C36.3013 19.2561 35.7387 20.8192 34.905 22.2565C34.9675 22.6124 34.9996 22.9721 34.9996 23.3334C34.9996 24.5881 34.636 25.7889 33.9626 26.8799C33.6264 27.4245 33.5399 28.0626 33.5067 28.4842C33.4685 28.9673 33.4814 29.496 33.5159 30.0039C33.5546 30.5737 33.6246 31.1719 33.7048 31.7362C33.0543 31.5465 32.3492 31.356 31.6763 31.2042C31.1166 31.078 30.5439 30.9703 30.0252 30.9168C29.5727 30.87 28.9188 30.8338 28.3341 31.0229C27.0556 31.4361 25.6488 31.6667 24.1662 31.6667C22.403 31.6667 20.7837 31.3537 19.3643 30.81C19.0229 30.8255 18.679 30.8334 18.3328 30.8334C16.3252 30.8334 14.3929 30.5693 12.585 30.0814C15.2132 33.1211 19.546 35 24.1662 35C25.9711 35 27.7034 34.7229 29.2999 34.2137C29.3027 34.2138 29.3078 34.2137 29.3153 34.2136C29.3563 34.2127 29.4701 34.2105 29.6827 34.2325C30.017 34.267 30.4469 34.344 30.9428 34.4559C31.9301 34.6786 33.0395 35.0072 33.9041 35.2817C35.7377 35.8637 37.5143 34.2636 37.1866 32.403C37.0456 31.6021 36.899 30.6247 36.8415 29.7781C36.8126 29.3523 36.8094 29.0029 36.8297 28.7464C36.8381 28.6402 36.8488 28.5735 36.8556 28.5381C37.7933 26.9848 38.3329 25.2162 38.3329 23.3334C38.3329 21.2108 37.6736 19.2725 36.5387 17.6116Z" fill="#FF5A30"/>
<path fill-rule="evenodd" clip-rule="evenodd" d="M9.3287 9.49686C7.08211 11.2148 5.83363 13.4701 5.83363 15.8333C5.83363 17.0117 6.1404 18.1466 6.71594 19.202C6.93515 19.6039 6.99734 20.0186 7.01957 20.2993C7.04382 20.6054 7.03173 20.92 7.00512 21.2141C6.95182 21.8031 6.8247 22.4704 6.67221 23.1276C6.49384 23.8965 6.26529 24.7164 6.03337 25.4862C6.91379 25.1663 7.87606 24.8383 8.78831 24.5722C9.52559 24.3571 10.2702 24.1704 10.9328 24.0657C11.5037 23.9754 12.332 23.8867 13.0452 24.1334C14.6458 24.6872 16.4363 24.9999 18.3336 24.9999C21.9122 24.9999 25.0904 23.8888 27.3386 22.1696C29.5852 20.4517 30.8336 18.1964 30.8336 15.8333C30.8336 13.4701 29.5852 11.2148 27.3386 9.49686C25.0904 7.7777 21.9122 6.66659 18.3336 6.66659C14.755 6.66659 11.5768 7.7777 9.3287 9.49686ZM7.30387 6.849C10.1831 4.64726 14.0882 3.33325 18.3336 3.33325C22.5791 3.33325 26.4842 4.64726 29.3634 6.849C32.2441 9.05191 34.167 12.2134 34.167 15.8333C34.167 19.4532 32.2441 22.6146 29.3634 24.8175C26.4842 27.0192 22.5791 28.3333 18.3336 28.3333C16.0952 28.3333 13.9571 27.9683 12.0157 27.3043C12.0138 27.3098 11.8563 27.2944 11.4534 27.3581C10.989 27.4315 10.3962 27.5754 9.72187 27.7721C8.37942 28.1638 6.87184 28.7178 5.72353 29.1647C3.73415 29.939 1.70756 28.0284 2.37783 25.9932C2.73308 24.9145 3.15205 23.5513 3.42512 22.3743C3.56268 21.7814 3.65194 21.2829 3.68535 20.9137C3.69694 20.7856 3.69994 20.6922 3.69927 20.629C2.93213 19.1631 2.5003 17.542 2.5003 15.8333C2.5003 12.2134 4.42314 9.05191 7.30387 6.849ZM3.69378 20.5381C3.69394 20.5379 3.69475 20.5424 3.69572 20.5521C3.6941 20.5432 3.69362 20.5383 3.69378 20.5381Z" fill="#FF5A30"/>
</svg>
