<svg width="40" height="40" viewBox="0 0 40 40" fill="none" xmlns="http://www.w3.org/2000/svg">
<path fill-rule="evenodd" clip-rule="evenodd" d="M14.1663 4.86971C12.7856 4.86971 11.6663 5.989 11.6663 7.36971V32.6301C11.6663 34.0108 12.7856 35.1301 14.1663 35.1301H25.833C27.2137 35.1301 28.333 34.0108 28.333 32.6301V7.36971C28.333 5.989 27.2137 4.86971 25.833 4.86971H25.694L25.2881 5.8438C25.0293 6.46482 24.4225 6.86934 23.7497 6.86934H16.2497C15.5769 6.86934 14.9701 6.46482 14.7113 5.8438L14.3053 4.86971H14.1663ZM8.33301 7.36971C8.33301 4.14805 10.9447 1.53638 14.1663 1.53638H25.833C29.0547 1.53638 31.6663 4.14805 31.6663 7.36971V32.6301C31.6663 35.8518 29.0547 38.4635 25.833 38.4635H14.1663C10.9447 38.4635 8.33301 35.8518 8.33301 32.6301V7.36971Z" fill="#FF5A30"/>
</svg>
