<svg width="130" height="22" viewBox="0 0 130 22" fill="none" xmlns="http://www.w3.org/2000/svg">
<g clip-path="url(#clip0_25_887)">
<path d="M0 11.1C0 5.00005 3.3 1.30005 8.7 1.30005C12.8 1.30005 16.1 3.80005 16.7 7.50005C16.8 7.90005 16.5 8.20005 16.1 8.20005H13.5C13.2 8.20005 13 8.00005 12.9 7.70005C12.4 5.80005 10.8 4.60005 8.7 4.60005C5.8 4.60005 4 7.10005 4 11.1C4 15.1 5.8 17.6 8.8 17.6C10.9 17.6 12.4 16.5 13 14.7C13.1 14.4 13.3 14.2 13.6 14.2H16.2C16.6 14.2 16.9 14.6 16.8 14.9C16.2 18.5 13 20.9 8.8 20.9C3.3 20.9 0 17.1 0 11.1Z" fill="#1E212C"/>
<path d="M24.2997 20.4003H21.3997C21.0997 20.4003 20.8997 20.2003 20.8997 19.9003V2.60031C20.8997 2.20031 21.2997 1.80031 21.6997 1.80031H28.6997C32.7997 1.80031 35.2997 4.1003 35.2997 7.7003C35.2997 9.8003 34.2997 11.7003 32.5997 12.7003C32.1997 12.9003 32.0997 13.4003 32.2997 13.7003L35.3997 19.6003C35.5997 19.9003 35.2997 20.3003 34.9997 20.3003H31.6997C31.4997 20.3003 31.2997 20.2003 31.1997 20.0003L28.2997 14.0003C28.1997 13.7003 27.8997 13.6003 27.5997 13.6003H25.2997C24.9997 13.6003 24.7997 13.8003 24.7997 14.1003V20.0003C24.8997 20.2003 24.5997 20.4003 24.2997 20.4003ZM24.8997 10.2003C24.8997 10.5003 25.0997 10.7003 25.3997 10.7003H28.3997C30.3997 10.7003 31.4997 9.6003 31.4997 7.8003C31.4997 6.0003 30.2997 4.90031 28.3997 4.90031H25.4997C25.1997 4.90031 24.9997 5.1003 24.9997 5.4003V10.2003H24.8997Z" fill="#1E212C"/>
<path d="M51.4998 20.4003H40.4998C40.0998 20.4003 39.7998 20.1003 39.7998 19.7003V2.50031C39.7998 2.10031 40.0998 1.80031 40.4998 1.80031H51.4998C51.8998 1.80031 52.1998 2.10031 52.1998 2.50031V4.40031C52.1998 4.80031 51.8998 5.1003 51.4998 5.1003H44.1998C43.8998 5.1003 43.6998 5.3003 43.6998 5.6003V9.0003C43.6998 9.3003 43.8998 9.5003 44.1998 9.5003H50.9998C51.3998 9.5003 51.6998 9.8003 51.6998 10.2003V11.9003C51.6998 12.3003 51.3998 12.6003 50.9998 12.6003H44.1998C43.8998 12.6003 43.6998 12.8003 43.6998 13.1003V16.9003C43.6998 17.2003 43.8998 17.4003 44.1998 17.4003H51.4998C51.8998 17.4003 52.1998 17.7003 52.1998 18.1003V20.0003C52.1998 20.1003 51.8998 20.4003 51.4998 20.4003Z" fill="#1E212C"/>
<path d="M66.9999 15.9003H61.2999C60.9999 15.9003 60.7999 16.1003 60.6999 16.3003L59.5999 20.0003C59.4999 20.3003 59.2999 20.4003 58.9999 20.4003H56.3999C55.9999 20.4003 55.6999 20.0003 55.7999 19.6003L61.7999 2.20031C61.8999 2.00031 62.0999 1.80031 62.3999 1.80031H66.0999C66.3999 1.80031 66.5999 2.00031 66.6999 2.20031L72.6999 19.6003C72.7999 20.0003 72.4999 20.4003 72.0999 20.4003H69.1999C68.8999 20.4003 68.6999 20.2003 68.5999 20.0003L67.4999 16.3003C67.4999 16.1003 67.1999 15.9003 66.9999 15.9003ZM62.0999 13.0003H66.1999C66.3999 13.0003 66.4999 12.8003 66.4999 12.6003L64.2999 5.6003H64.0999L61.8999 12.6003C61.7999 12.8003 61.8999 13.0003 62.0999 13.0003Z" fill="#1E212C"/>
<path d="M79.0001 19.7007V5.5007C79.0001 5.2007 78.8001 5.00069 78.5001 5.00069H74.1001C73.7001 5.00069 73.3001 4.7007 73.3001 4.2007V2.50069C73.3001 2.1007 73.6001 1.7007 74.1001 1.7007H87.7001C88.1001 1.7007 88.5001 2.00069 88.5001 2.50069V4.2007C88.5001 4.6007 88.2001 5.00069 87.7001 5.00069H83.3001C83.0001 5.00069 82.8001 5.2007 82.8001 5.5007V19.8007C82.8001 20.2007 82.5001 20.5007 82.1001 20.5007H79.6001C79.3001 20.4007 79.0001 20.1007 79.0001 19.7007Z" fill="#1E212C"/>
<path d="M103.8 20.4003H92.7999C92.3999 20.4003 92.0999 20.1003 92.0999 19.7003V2.50031C92.0999 2.10031 92.3999 1.80031 92.7999 1.80031H103.8C104.2 1.80031 104.5 2.10031 104.5 2.50031V4.40031C104.5 4.80031 104.2 5.1003 103.8 5.1003H96.4999C96.1999 5.1003 95.9999 5.3003 95.9999 5.6003V9.0003C95.9999 9.3003 96.1999 9.5003 96.4999 9.5003H103.3C103.7 9.5003 104 9.8003 104 10.2003V11.9003C104 12.3003 103.7 12.6003 103.3 12.6003H96.4999C96.1999 12.6003 95.9999 12.8003 95.9999 13.1003V16.9003C95.9999 17.2003 96.1999 17.4003 96.4999 17.4003H103.8C104.2 17.4003 104.5 17.7003 104.5 18.1003V20.0003C104.5 20.1003 104.2 20.4003 103.8 20.4003Z" fill="#1E212C"/>
<path d="M117.7 9.70049L111.5 1.60049C111.1 1.20049 110.6 1.00049 110.1 1.00049C109.6 1.00049 109.1 1.20049 108.7 1.60049C108 2.40049 108 3.60049 108.7 4.40049L113.6 11.0005L108.7 17.6005C108 18.4005 108 19.6005 108.7 20.4005C109.1 20.8005 109.6 21.0005 110.1 21.0005C110.6 21.0005 111.1 20.8005 111.5 20.4005L117.7 12.3005C118.4 11.7005 118.4 10.5005 117.7 9.70049Z" fill="#FF5A30"/>
<path d="M120.343 9.70049L126.543 1.60049C126.943 1.20049 127.443 1.00049 127.943 1.00049C128.443 1.00049 128.943 1.20049 129.343 1.60049C130.043 2.40049 130.043 3.60049 129.343 4.40049L124.443 11.0005L129.343 17.6005C130.043 18.4005 130.043 19.6005 129.343 20.4005C128.943 20.8005 128.443 21.0005 127.943 21.0005C127.443 21.0005 126.943 20.8005 126.543 20.4005L120.343 12.3005C119.643 11.7005 119.643 10.5005 120.343 9.70049Z" fill="#FF5A30"/>
</g>
<defs>
<clipPath id="clip0_25_887">
<rect width="130" height="22" fill="white"/>
</clipPath>
</defs>
</svg>
